<svg width="21" height="21" viewBox="0 0 21 21" fill="none" xmlns="http://www.w3.org/2000/svg">
<path fill-rule="evenodd" clip-rule="evenodd" d="M3.28125 10.5C3.28125 8.58547 4.04179 6.74935 5.39557 5.39557C6.74935 4.04179 8.58547 3.28125 10.5 3.28125C12.4145 3.28125 14.2506 4.04179 15.6044 5.39557C16.9582 6.74935 17.7188 8.58547 17.7188 10.5C17.7188 12.4145 16.9582 14.2506 15.6044 15.6044C14.2506 16.9582 12.4145 17.7188 10.5 17.7188C8.58547 17.7188 6.74935 16.9582 5.39557 15.6044C4.04179 14.2506 3.28125 12.4145 3.28125 10.5ZM10.5 1.96875C5.78812 1.96875 1.96875 5.78812 1.96875 10.5C1.96875 15.2119 5.78812 19.0312 10.5 19.0312C15.2119 19.0312 19.0312 15.2119 19.0312 10.5C19.0312 5.78812 15.2119 1.96875 10.5 1.96875ZM14.4638 8.33875C14.5797 8.21435 14.6428 8.04981 14.6398 7.87979C14.6368 7.70978 14.5679 7.54757 14.4477 7.42733C14.3274 7.3071 14.1652 7.23822 13.9952 7.23522C13.8252 7.23222 13.6607 7.29533 13.5363 7.41125L9.625 11.3225L8.33875 10.0363C8.21435 9.92033 8.04981 9.85722 7.87979 9.86022C7.70978 9.86322 7.54757 9.9321 7.42733 10.0523C7.3071 10.1726 7.23822 10.3348 7.23522 10.5048C7.23222 10.6748 7.29533 10.8393 7.41125 10.9637L9.16125 12.7137C9.2843 12.8366 9.45109 12.9057 9.625 12.9057C9.79891 12.9057 9.9657 12.8366 10.0887 12.7137L14.4638 8.33875Z" fill="black"/>
</svg>
