<svg width="32" height="32" viewBox="0 0 32 32" fill="none" xmlns="http://www.w3.org/2000/svg">
<path d="M0 16C0 7.16344 7.16344 0 16 0C24.8366 0 32 7.16344 32 16C32 24.8366 24.8366 32 16 32C7.16344 32 0 24.8366 0 16Z" fill="#13151B"/>
<path fill-rule="evenodd" clip-rule="evenodd" d="M9.78625 13.411C9.9093 13.2881 10.0761 13.2191 10.25 13.2191C10.4239 13.2191 10.5907 13.2881 10.7138 13.411L15.5 18.1973L20.2863 13.411C20.3463 13.3465 20.4188 13.2948 20.4993 13.259C20.5798 13.2231 20.6667 13.2038 20.7548 13.2023C20.8429 13.2007 20.9304 13.2169 21.0121 13.2499C21.0939 13.2829 21.1681 13.332 21.2304 13.3944C21.2927 13.4567 21.3419 13.5309 21.3749 13.6126C21.4079 13.6943 21.4241 13.7819 21.4225 13.87C21.421 13.9581 21.4017 14.045 21.3658 14.1255C21.3299 14.206 21.2782 14.2784 21.2138 14.3385L15.9638 19.5885C15.8407 19.7114 15.6739 19.7804 15.5 19.7804C15.3261 19.7804 15.1593 19.7114 15.0363 19.5885L9.78625 14.3385C9.66336 14.2155 9.59433 14.0487 9.59433 13.8748C9.59433 13.7009 9.66336 13.5341 9.78625 13.411Z" fill="black"/>
</svg>
